<svg xmlns="http://www.w3.org/2000/svg" xmlns:xlink="http://www.w3.org/1999/xlink" width="100" zoomAndPan="magnify" viewBox="0 0 75 37.5" height="50" preserveAspectRatio="xMidYMid meet" version="1.0"><defs><g/><clipPath id="e57af3af22"><path d="M 1.207031 27.515625 L 34.414062 27.515625 L 34.414062 31.207031 L 1.207031 31.207031 Z M 1.207031 27.515625 " clip-rule="nonzero"/></clipPath><clipPath id="8e9138afc6"><path d="M 38.734375 6.53125 L 71.9375 6.53125 L 71.9375 10.222656 L 38.734375 10.222656 Z M 38.734375 6.53125 " clip-rule="nonzero"/></clipPath></defs><g clip-path="url(#e57af3af22)"><path fill="#000000" d="M 1.207031 27.515625 L 34.410156 27.515625 L 34.410156 31.207031 L 1.207031 31.207031 Z M 1.207031 27.515625 " fill-opacity="1" fill-rule="nonzero"/></g><g clip-path="url(#8e9138afc6)"><path fill="#000000" d="M 38.734375 6.53125 L 71.9375 6.53125 L 71.9375 10.222656 L 38.734375 10.222656 Z M 38.734375 6.53125 " fill-opacity="1" fill-rule="nonzero"/></g><g fill="#000000" fill-opacity="1"><g transform="translate(2.712819, 20.920946)"><g><path d="M 0.796875 0 L 0.796875 -3.1875 L 3 -3.1875 C 3.914062 -3.1875 4.554688 -3.40625 4.921875 -3.84375 C 5.285156 -4.28125 5.46875 -4.914062 5.46875 -5.75 L 5.46875 -15 L 8.890625 -15 L 8.890625 -5.484375 C 8.890625 -3.753906 8.410156 -2.40625 7.453125 -1.4375 C 6.503906 -0.476562 5.09375 0 3.21875 0 Z M 0.796875 0 "/></g></g></g><g fill="#000000" fill-opacity="1"><g transform="translate(17.807958, 20.920946)"><g><path d="M 1.796875 0 L 1.796875 -15 L 8.203125 -15 C 9.347656 -15 10.34375 -14.789062 11.1875 -14.375 C 12.03125 -13.96875 12.679688 -13.378906 13.140625 -12.609375 C 13.597656 -11.835938 13.828125 -10.914062 13.828125 -9.84375 C 13.828125 -8.738281 13.578125 -7.789062 13.078125 -7 C 12.578125 -6.207031 11.875 -5.609375 10.96875 -5.203125 L 14.078125 0 L 10.140625 0 L 7.453125 -4.671875 L 5.203125 -4.671875 L 5.203125 0 Z M 5.171875 -7.546875 L 7.765625 -7.546875 C 8.609375 -7.546875 9.253906 -7.738281 9.703125 -8.125 C 10.148438 -8.519531 10.375 -9.082031 10.375 -9.8125 C 10.375 -10.539062 10.148438 -11.101562 9.703125 -11.5 C 9.253906 -11.894531 8.609375 -12.09375 7.765625 -12.09375 L 5.171875 -12.09375 Z M 5.171875 -7.546875 "/></g></g></g><g fill="#000000" fill-opacity="1"><g transform="translate(41.281426, 31.109624)"><g><path d="M 1.796875 0 L 1.796875 -15 L 5.203125 -15 L 5.203125 -3.1875 L 11.765625 -3.1875 L 11.765625 0 Z M 1.796875 0 "/></g></g></g><g fill="#000000" fill-opacity="1"><g transform="translate(58.070434, 31.109624)"><g><path d="M 5.40625 0 L 5.40625 -11.8125 L 0.640625 -11.8125 L 0.640625 -15 L 13.5625 -15 L 13.5625 -11.8125 L 8.8125 -11.8125 L 8.8125 0 Z M 5.40625 0 "/></g></g></g></svg>